<?xml version="1.0" encoding="UTF-8" standalone="no"?>
<svg
   xmlns:dc="http://purl.org/dc/elements/1.1/"
   xmlns:cc="http://creativecommons.org/ns#"
   xmlns:rdf="http://www.w3.org/1999/02/22-rdf-syntax-ns#"
   xmlns:svg="http://www.w3.org/2000/svg"
   xmlns="http://www.w3.org/2000/svg"
   xmlns:xlink="http://www.w3.org/1999/xlink"
   xmlns:sodipodi="http://sodipodi.sourceforge.net/DTD/sodipodi-0.dtd"
   xmlns:inkscape="http://www.inkscape.org/namespaces/inkscape"
   width="100"
   height="100"
   viewBox="0 0 100 100"
   version="1.1"
   id="svg2"
   inkscape:version="0.91 r13725"
   sodipodi:docname="icon.svg"
   inkscape:export-xdpi="57.599998"
   inkscape:export-ydpi="57.599998">
  <metadata
     id="metadata10">
    <rdf:RDF>
      <cc:Work
         rdf:about="">
        <dc:format>image/svg+xml</dc:format>
        <dc:type
           rdf:resource="http://purl.org/dc/dcmitype/StillImage" />
        <dc:title />
      </cc:Work>
    </rdf:RDF>
  </metadata>
  <defs
     id="defs8">
    <linearGradient
       inkscape:collect="always"
       id="linearGradient4198">
      <stop
         style="stop-color:#9ab592;stop-opacity:1;"
         offset="0"
         id="stop4200" />
      <stop
         id="stop4212"
         offset="0.48571429"
         style="stop-color:#9ab592;stop-opacity:1" />
      <stop
         style="stop-color:#f8f6f7;stop-opacity:1"
         offset="0.51428574"
         id="stop4222" />
      <stop
         style="stop-color:#f8f6f7;stop-opacity:1"
         offset="1"
         id="stop4202" />
    </linearGradient>
    <linearGradient
       inkscape:collect="always"
       xlink:href="#linearGradient4198"
       id="linearGradient4204"
       x1="45"
       y1="80"
       x2="45"
       y2="10"
       gradientUnits="userSpaceOnUse" />
  </defs>
  <sodipodi:namedview
     pagecolor="#ffffff"
     bordercolor="#666666"
     borderopacity="1"
     objecttolerance="10"
     gridtolerance="10"
     guidetolerance="10"
     inkscape:pageopacity="0"
     inkscape:pageshadow="2"
     inkscape:window-width="1920"
     inkscape:window-height="1018"
     id="namedview6"
     showgrid="true"
     inkscape:object-nodes="true"
     inkscape:snap-smooth-nodes="true"
     inkscape:zoom="2.8284271"
     inkscape:cx="-21.190819"
     inkscape:cy="54.868608"
     inkscape:window-x="-8"
     inkscape:window-y="-8"
     inkscape:window-maximized="1"
     inkscape:current-layer="g4219">
    <inkscape:grid
       type="xygrid"
       id="grid4142"
       spacingx="1"
       spacingy="1"
       empspacing="5" />
  </sodipodi:namedview>
  <g
     style="display:none"
     inkscape:label="Magnifying Glass Handle"
     id="g4144"
     inkscape:groupmode="layer">
    <path
       sodipodi:nodetypes="cccc"
       inkscape:connector-curvature="0"
       id="path4146"
       d="m 65,80 40,45 15,-16 -40,-44"
       style="fill:#d7d7d7;fill-opacity:1;fill-rule:evenodd;stroke:#4f535b;stroke-width:8;stroke-linecap:round;stroke-linejoin:round;stroke-miterlimit:4;stroke-dasharray:none;stroke-opacity:1" />
  </g>
  <g
     inkscape:groupmode="layer"
     id="g4150"
     inkscape:label="Magnifying Glass Handle v2"
     style="display:none">
    <path
       id="circle4193-3"
       style="display:inline;opacity:1;fill:#d7d7d7;fill-opacity:1;stroke:#4f535b;stroke-width:8;stroke-linecap:butt;stroke-linejoin:round;stroke-miterlimit:4;stroke-dasharray:none;stroke-dashoffset:0;stroke-opacity:1"
       d="M 105,125 120,109 86.77336,72.443478 C 82.83994,78.464397 77.640653,83.552752 71.539472,87.36045 Z"
       inkscape:connector-curvature="0"
       sodipodi:nodetypes="ccccc" />
  </g>
  <g
     style="display:inline"
     inkscape:label="Magnifying Glass Handle v3"
     id="g4219"
     inkscape:groupmode="layer">
    <path
       sodipodi:nodetypes="cccccc"
       inkscape:connector-curvature="0"
       d="m 79,95 16,0 0,-16 -8.22664,-6.556522 C 82.83994,78.464397 77.640653,83.552752 71.539472,87.36045 Z"
       style="display:inline;opacity:1;fill:#d7d7d7;fill-opacity:1;stroke:#4f535b;stroke-width:8;stroke-linecap:butt;stroke-linejoin:round;stroke-miterlimit:4;stroke-dasharray:none;stroke-dashoffset:0;stroke-opacity:1"
       id="path4221" />
  </g>
  <g
     inkscape:groupmode="layer"
     id="layer2"
     inkscape:label="Magnifying Glass"
     style="display:inline">
    <circle
       style="opacity:1;fill:url(#linearGradient4204);fill-opacity:1;stroke:#4f535b;stroke-width:8;stroke-linecap:butt;stroke-linejoin:miter;stroke-miterlimit:4;stroke-dasharray:none;stroke-dashoffset:0;stroke-opacity:1"
       id="path4144"
       cx="45"
       cy="45"
       r="40" />
  </g>
  <g
     style="display:inline"
     inkscape:label="Panda"
     id="g4154"
     inkscape:groupmode="layer">
    <path
       style="fill:#34353b;fill-opacity:1;fill-rule:evenodd;stroke:none"
       d="m 45.625,13.742188 c -3.570407,0.02469 -7.254914,0.452549 -11.757812,5.720703 -2.628251,1.730993 -7.34494,2.43886 -7.087891,5.46875 0.29626,3.492067 2.478234,2.578333 4.677734,3.851562 0.215793,2.471718 0.771549,4.846144 1.81836,6.859375 0.04911,3.03336 -0.47186,2.664335 -0.134766,4.591797 0.337094,1.927469 2.768528,2.575919 4.214844,3.554687 -1.267131,5.762368 -1.277435,3.541003 -2.148438,12.066407 0,0 -10.419066,0.464648 -11.730469,-0.421875 -0.643081,-0.43473 -1.598023,-4.352575 -4.251953,-5.052735 -1.686141,-0.391572 -3.80293,0.140556 -5.445312,1.654297 1.66163,7.451147 5.905317,13.905501 11.753906,18.384766 0.03436,-0.0026 0.07926,-0.0052 0.113281,-0.0078 -5.38e-4,0.03209 -0.0032,0.06177 -0.0039,0.09375 C 31.012042,74.581243 37.713285,77 45,77 c 7.043627,0 13.538799,-2.262253 18.814453,-6.09375 0.578838,-1.644759 0.578138,-3.291766 -0.154297,-5.263672 -1.123796,-3.025553 -5.141939,-4.258947 -6.341797,-4.951172 1.027306,-2.339588 2.463444,-6.538978 3.410157,-10.333984 C 63.553801,46.85638 64.38615,39.77808 61.042969,36.734375 58.365971,34.297176 52.691866,37.111412 50,40 c -2.098085,2.251414 -1.806092,1.839648 -3.40625,3.167969 0.895782,-0.217654 1.594924,-0.272039 2.595703,-0.804688 -2.140156,7.910731 -3.820892,15.679561 -7.882812,23.283203 -2.128788,3.984947 -4.065006,2.741146 -3.888672,-1.511718 0.25052,-6.042083 2.679331,-14.20729 4.117187,-21.65625 -1.351656,-0.465625 -1.385538,-0.68248 -2.664062,-1.494141 1.087983,-1.112458 0.844918,-3.04965 0.855468,-4.162109 -1.199681,0.495867 -1.853251,1.254612 -3.216796,1.919922 -0.909295,-1.058794 -0.125582,-2.749453 -0.07617,-4.181641 C 34.6941,30.011369 33.24524,26.328619 36.1875,21.708984 c 2.94226,-4.619636 10.596209,-5.596108 14.910156,-3.007812 5.815108,3.488968 7.024775,6.875648 9.699219,11.78125 2.674443,4.905602 5.98247,11.746611 7.285156,17.015625 1.302686,5.269014 1.287417,8.77054 0.94336,12.820312 -0.243052,2.733024 -0.554695,5.148696 -1.470703,7.41211 1.995582,-1.980155 3.725417,-4.225863 5.144531,-6.675781 C 73.290454,55.510724 72.499725,49.903506 70.455078,43.748047 67.697827,35.447306 64.687273,28.467207 59.9375,21.902344 56.014625,16.480371 51.210157,13.744141 47.150391,13.744141 c -0.507471,0 -1.015333,-0.0055 -1.525391,-0.002 z"
       id="path4156"
       inkscape:connector-curvature="0"
       sodipodi:nodetypes="scsccsccscccccscsccssccsscccccsssscccssss" />
  </g>
</svg>
